<svg width="53" height="58" viewBox="0 0 53 58" fill="none" xmlns="http://www.w3.org/2000/svg">
<rect y="8.77246" width="46.5102" height="35.8205" fill="#FEBF10"/>
<path d="M22.4931 44.6806L19.3982 44.6805L18.9114 38.1198L20.8037 39.2584L22.4931 37.6634L24.3368 39.2584L25.779 38.1201L25.4184 44.6805L22.4931 44.6806Z" fill="#F2501B"/>
<rect x="15.864" y="17.9102" width="14.4218" height="5.11722" rx="2.55861" fill="#FB9E20"/>
<path d="M5.40816 0H40.7415L46.5102 8.77237H0L5.40816 0Z" fill="#FB9E20"/>
<path d="M20.3708 0H25.5987L26.5001 8.77237H24.1566H24.6974H22.8947H22.7696H21.6327H19.4695L20.3708 0Z" fill="#CA200A"/>
<path d="M19.4695 8.77246H26.5001V12.7931V15.7173L24.8776 14.2552L22.9825 15.7173L21.4525 14.2552L19.4695 15.6365V12.9716V12.7294V8.77246Z" fill="#F2501B"/>
<circle cx="37.84" cy="42.84" r="14.84" fill="#EA4335"/>
<path d="M42.5761 38.5417C42.4349 38.4006 42.2434 38.3213 42.0438 38.3213C41.8441 38.3213 41.6527 38.4006 41.5115 38.5417L38.0586 41.9947L34.6056 38.5417C34.4644 38.4006 34.273 38.3213 34.0733 38.3213C33.8737 38.3213 33.6822 38.4006 33.541 38.5417C33.3999 38.6829 33.3206 38.8744 33.3206 39.0741C33.3206 39.2737 33.3999 39.4652 33.541 39.6064L36.9939 43.0593L33.541 46.5122C33.3999 46.6534 33.3206 46.8449 33.3206 47.0445C33.3206 47.2442 33.3999 47.4356 33.541 47.5768C33.6822 47.718 33.8737 47.7973 34.0733 47.7973C34.273 47.7973 34.4644 47.718 34.6056 47.5768L38.0586 44.1239L41.5115 47.5768C41.6527 47.718 41.8441 47.7973 42.0438 47.7973C42.2434 47.7973 42.4349 47.718 42.5761 47.5768C42.7173 47.4356 42.7966 47.2442 42.7966 47.0445C42.7966 46.8449 42.7173 46.6534 42.5761 46.5122L39.1232 43.0593L42.5761 39.6064C42.7173 39.4652 42.7966 39.2737 42.7966 39.0741C42.7966 38.8744 42.7173 38.6829 42.5761 38.5417V38.5417Z" fill="white"/>
</svg>
