<svg width="150" height="150" viewBox="0 0 150 150" fill="none" xmlns="http://www.w3.org/2000/svg">
<rect y="24.8271" width="131.633" height="101.379" fill="#FEBF10"/>
<path d="M63.6596 126.454L54.9004 126.454L53.5226 107.885L58.8781 111.108L63.6596 106.594L68.8775 111.108L72.9592 107.886L71.9387 126.453L63.6596 126.454Z" fill="#F2501B"/>
<rect x="44.8979" y="50.689" width="40.8163" height="14.4827" rx="7.24134" fill="#FB9E20"/>
<path d="M15.3061 0H115.306L131.633 24.8275H0L15.3061 0Z" fill="#FB9E20"/>
<path d="M57.6531 0H72.449L75 24.8275H68.3674H69.898H64.7959H64.4421H61.2245H55.1021L57.6531 0Z" fill="#CA200A"/>
<path d="M55.1021 24.8276H75V36.2069V44.4827L70.4082 40.3448L65.0445 44.4827L60.7143 40.3448L55.1021 44.2542V36.7121V36.0265V24.8276Z" fill="#F2501B"/>
<circle cx="107.794" cy="92.4691" r="41.8367" fill="#29B2DB"/>
<circle cx="107.536" cy="92.3245" r="32.6653" fill="white"/>
<path d="M130.661 92.5005C131.953 92.5005 133.011 93.5497 132.893 94.8358C132.559 98.4635 131.451 101.987 129.633 105.165C127.426 109.021 124.251 112.234 120.421 114.485C116.59 116.736 112.238 117.947 107.796 117.999C104.135 118.041 100.517 117.295 97.1857 115.821C96.0045 115.299 95.6027 113.864 96.2311 112.736C96.8595 111.607 98.2798 111.215 99.4715 111.713C102.082 112.804 104.896 113.355 107.742 113.322C111.369 113.28 114.923 112.291 118.051 110.453C121.178 108.614 123.772 105.991 125.573 102.842C126.987 100.372 127.875 97.6459 128.192 94.8342C128.336 93.5507 129.37 92.5005 130.661 92.5005Z" fill="#29B2DB"/>
</svg>
